<svg version="1.2" xmlns="http://www.w3.org/2000/svg" viewBox="0 0 100 99">
	<path id="Layer" class="s0" d="m50 18.3c-7.3-0.1-14.4 2.5-20.1 7.1-5.6 4.6-9.5 11-11 18.2-1.5 7.1-0.4 14.6 2.9 21.1 3.4 6.4 8.9 11.6 15.6 14.4 0.2-8 1.5-15.7 1.6-22.9q0-0.9-0.2-1.8-0.1-0.9-0.4-1.8-0.4-0.9-0.9-1.6-0.5-0.8-1.1-1.5c-2.5-2.9-2.9-6-2.3-13.5l0.7-7.2q0-0.2 0-0.3 0.1-0.2 0.2-0.3 0.2-0.2 0.3-0.2 0.2-0.1 0.4-0.1 0.2 0 0.4 0.1 0.1 0.1 0.3 0.2 0.1 0.2 0.2 0.3 0 0.2 0 0.4v13c0 0.7 0.4 1.2 0.9 1.2 0.4 0 0.8-0.5 0.8-1.2v-13c0-0.2 0.1-0.5 0.2-0.7 0.2-0.2 0.5-0.3 0.7-0.3 0.3 0 0.6 0.1 0.7 0.3 0.2 0.2 0.3 0.5 0.3 0.7v13c0 0.7 0.3 1.2 0.8 1.2 0.5 0 0.8-0.5 0.8-1.2v-13c0-0.2 0.1-0.5 0.3-0.7 0.1-0.2 0.4-0.3 0.7-0.3 0.2 0 0.5 0.1 0.7 0.3 0.1 0.2 0.2 0.5 0.2 0.7v13c0 0.7 0.4 1.2 0.8 1.2 0.5 0 0.9-0.5 0.9-1.2v-13c-0.1-0.2 0-0.5 0.2-0.7 0.2-0.2 0.4-0.3 0.7-0.3 0.2 0 0.5 0.1 0.7 0.2 0.1 0.2 0.3 0.5 0.2 0.7l0.7 7.2c0.6 7.5 0.2 10.6-2.3 13.5q-0.6 0.7-1.1 1.5-0.5 0.7-0.9 1.6-0.3 0.9-0.4 1.8-0.2 0.9-0.2 1.8c0.1 7.9 1.6 16.2 1.6 25.1q1.5 0.3 3.1 0.4 1.6 0.1 3.2 0 1.5 0 3.1-0.2 1.6-0.2 3.1-0.6c0.4-3.6 1-7.7 1.6-11.4 0.6-3.7 1.1-5.3-0.7-7.3-2.3-2.7-5-10.6-3-22.6 1.4-7.6 5.1-10.5 6-11.3 1.4-0.9 2.1-0.2 2.1 0.9v49.7c6.6-3 12-8.1 15.2-14.6 3.3-6.5 4.3-13.9 2.7-21-1.5-7.1-5.4-13.4-11.1-18-5.6-4.6-12.6-7.1-19.9-7.1z"/>
	<path id="Layer" fill-rule="evenodd" class="s0" d="m67.2 8.4c5.5 2.3 10.4 5.6 14.6 9.8 4.2 4.2 7.5 9.1 9.8 14.6 2.2 5.4 3.4 11.3 3.4 17.2 0 18.2-11 34.6-27.8 41.6-16.8 6.9-36.1 3.1-49-9.8-12.9-12.9-16.7-32.2-9.8-49 7-16.8 23.4-27.8 41.6-27.8 5.9 0 11.8 1.2 17.2 3.4zm17.4 34.8c-3.3-16.6-17.9-28.6-34.9-28.5-16.9 0.2-31.4 12.4-34.4 29-3 16.7 6.3 33.2 22.1 39.2q0.1 2.9 0.5 5.9c0.4 3.1 1.5 4.1 3.1 4.1 1.6 0 2.7-1 3.1-4.1q0.3-2 0.4-4 1.5 0.3 3.1 0.4 1.5 0.1 3.1 0 1.5 0 3.1-0.2 1.5-0.1 3.1-0.4c-0.1 3 0.2 5.5 1.2 6.9q0.2 0.3 0.5 0.5 0.2 0.3 0.5 0.4 0.3 0.2 0.6 0.3 0.4 0.1 0.7 0.2c1.5 0 2.7-1.1 2.7-4.4v-5.8c15.7-6.3 24.8-22.9 21.5-39.5z"/>
	<path id="Created by Lnhi" class="s0" aria-label="Created by Lnhi"  d="m3.2 111.6v0.6q-0.2-0.3-0.5-0.4-0.3-0.1-0.6-0.1-0.6 0-1 0.4-0.3 0.4-0.3 1.1 0 0.7 0.3 1.1 0.4 0.4 1 0.4 0.3 0 0.6-0.1 0.3-0.2 0.5-0.4v0.5q-0.2 0.2-0.5 0.3-0.3 0.1-0.6 0.1-0.9 0-1.3-0.5-0.5-0.5-0.5-1.4 0-0.9 0.5-1.4 0.4-0.5 1.3-0.5 0.3 0 0.6 0.1 0.3 0.1 0.5 0.2zm2.3 0.6v0.5q0-0.1-0.1-0.1-0.1 0-0.2 0-0.4 0-0.6 0.2-0.2 0.3-0.2 0.8v1.4h-0.5v-2.7h0.5v0.4q0.1-0.3 0.4-0.4 0.2-0.1 0.5-0.1 0.1 0 0.1 0 0.1 0 0.1 0zm2.7 1.3v0.2h-2q0 0.5 0.3 0.7 0.2 0.3 0.7 0.3 0.2 0 0.5-0.1 0.2 0 0.4-0.2v0.5q-0.2 0.1-0.5 0.1-0.2 0.1-0.5 0.1-0.6 0-1-0.4-0.4-0.4-0.4-1 0-0.7 0.4-1.1 0.3-0.4 1-0.4 0.5 0 0.8 0.4 0.3 0.3 0.3 0.9zm-2-0.1h1.6q0-0.4-0.2-0.6-0.2-0.2-0.5-0.2-0.4 0-0.6 0.2-0.3 0.2-0.3 0.6zm4.5 0.2h-0.5q-0.5 0-0.7 0.2-0.2 0.1-0.2 0.4 0 0.2 0.1 0.4 0.2 0.1 0.4 0.1 0.4 0 0.6-0.3 0.3-0.2 0.3-0.7zm0.4-0.2v1.6h-0.4v-0.4q-0.2 0.2-0.4 0.4-0.2 0.1-0.6 0.1-0.4 0-0.6-0.3-0.3-0.2-0.3-0.6 0-0.5 0.3-0.7 0.3-0.2 0.9-0.2h0.7v-0.1q0-0.3-0.2-0.4-0.2-0.2-0.6-0.2-0.2 0-0.5 0-0.2 0.1-0.4 0.2v-0.4q0.3-0.1 0.5-0.2 0.2 0 0.4 0 0.6 0 0.9 0.3 0.3 0.3 0.3 0.9zm0.9-1.9h0.5v0.8h0.9v0.3h-0.9v1.5q0 0.3 0.1 0.4 0.1 0.1 0.4 0.1h0.4v0.4h-0.4q-0.6 0-0.8-0.2-0.2-0.2-0.2-0.7v-1.5h-0.3v-0.3h0.3zm4.3 2v0.2h-2q0 0.5 0.3 0.7 0.2 0.3 0.7 0.3 0.2 0 0.5-0.1 0.2-0.1 0.4-0.2v0.4q-0.2 0.1-0.5 0.2-0.2 0-0.5 0-0.6 0-1-0.3-0.4-0.4-0.4-1.1 0-0.6 0.4-1 0.3-0.4 1-0.4 0.5 0 0.8 0.3 0.3 0.4 0.3 1zm-2-0.1h1.6q0-0.4-0.2-0.6-0.2-0.2-0.5-0.2-0.4 0-0.6 0.2-0.3 0.2-0.3 0.6zm4.6-0.7v-1.5h0.4v3.8h-0.4v-0.4q-0.2 0.2-0.4 0.3-0.2 0.1-0.5 0.1-0.5 0-0.8-0.3-0.3-0.4-0.3-1.1 0-0.6 0.3-1 0.3-0.4 0.8-0.4 0.3 0 0.5 0.1 0.2 0.1 0.4 0.4zm-1.5 0.9q0 0.5 0.2 0.8 0.2 0.3 0.5 0.3 0.4 0 0.6-0.3 0.2-0.3 0.2-0.8 0-0.5-0.2-0.8-0.2-0.2-0.6-0.2-0.3 0-0.5 0.2-0.2 0.3-0.2 0.8zm6.4 0q0-0.5-0.2-0.8-0.2-0.2-0.6-0.2-0.3 0-0.5 0.2-0.2 0.3-0.2 0.8 0 0.5 0.2 0.8 0.2 0.3 0.5 0.3 0.4 0 0.6-0.3 0.2-0.3 0.2-0.8zm-1.5-2.4v1.5q0.1-0.3 0.3-0.4 0.3-0.1 0.6-0.1 0.5 0 0.8 0.4 0.3 0.4 0.3 1 0 0.7-0.3 1.1-0.3 0.3-0.8 0.3-0.3 0-0.6-0.1-0.2-0.1-0.3-0.3v0.4h-0.5v-3.8zm5.1 1l-1.2 3q-0.2 0.5-0.4 0.7-0.1 0.1-0.4 0.1h-0.4v-0.4h0.3q0.1 0 0.2 0 0.1-0.1 0.3-0.5l0.1-0.2-1.2-2.7h0.5l0.9 2.2 0.8-2.2zm2.3 2.8v-3.7h0.5v3.3h1.7v0.4zm5.1-1.7v1.7h-0.5v-1.7q0-0.3-0.1-0.5-0.2-0.2-0.5-0.2-0.3 0-0.6 0.2-0.2 0.2-0.2 0.6v1.6h-0.4v-2.8h0.4v0.5q0.2-0.3 0.4-0.4 0.2-0.1 0.5-0.1 0.5 0 0.7 0.3 0.3 0.3 0.3 0.8zm3.1 0v1.7h-0.4v-1.7q0-0.3-0.2-0.5-0.1-0.2-0.4-0.2-0.4 0-0.6 0.2-0.2 0.2-0.2 0.6v1.6h-0.5v-3.8h0.5v1.5q0.2-0.3 0.4-0.4 0.2-0.1 0.5-0.1 0.5 0 0.7 0.3 0.2 0.3 0.2 0.8zm0.9 1.7v-2.8h0.5v2.8zm0-3.3v-0.5h0.4v0.5z"/>
	<path id="from the Noun Project" class="s0" aria-label="from the Noun Project"  d="m1.4 116.2h0.5v0.4h-0.5q-0.2 0-0.3 0.1-0.1 0.1-0.1 0.3v0.3h0.7v0.3h-0.7v2.4h-0.5v-2.4h-0.4v-0.3h0.4v-0.2q0-0.5 0.3-0.7 0.2-0.2 0.6-0.2zm2.4 1v0.5q-0.1-0.1-0.2-0.1 0 0-0.1 0-0.4 0-0.6 0.2-0.2 0.3-0.2 0.8v1.4h-0.5v-2.7h0.5v0.4q0.1-0.3 0.3-0.4 0.3-0.1 0.6-0.1 0 0 0.1 0 0 0 0.1 0zm1.4 0.4q-0.3 0-0.5 0.3-0.2 0.2-0.2 0.7 0 0.5 0.2 0.8 0.2 0.3 0.5 0.3 0.4 0 0.6-0.3 0.2-0.3 0.2-0.8 0-0.5-0.2-0.7-0.2-0.3-0.6-0.3zm0-0.4q0.6 0 1 0.4 0.3 0.4 0.3 1 0 0.7-0.3 1.1-0.4 0.4-1 0.4-0.6 0-0.9-0.4-0.3-0.4-0.3-1.1 0-0.6 0.3-1 0.3-0.4 0.9-0.4zm4.2 0.6q0.1-0.3 0.4-0.5 0.2-0.1 0.5-0.1 0.4 0 0.7 0.3 0.2 0.3 0.2 0.8v1.7h-0.4v-1.6q0-0.4-0.2-0.6-0.1-0.2-0.4-0.2-0.4 0-0.6 0.2-0.2 0.3-0.2 0.7v1.5h-0.4v-1.6q0-0.4-0.1-0.6-0.2-0.2-0.5-0.2-0.3 0-0.5 0.2-0.2 0.3-0.2 0.7v1.5h-0.5v-2.7h0.5v0.4q0.1-0.3 0.3-0.4 0.3-0.1 0.5-0.1 0.3 0 0.6 0.2 0.2 0.1 0.3 0.4zm4.3-1.3h0.4v0.8h1v0.3h-1v1.5q0 0.3 0.1 0.4 0.1 0.1 0.4 0.1h0.5v0.4h-0.5q-0.5 0-0.7-0.2-0.2-0.2-0.2-0.7v-1.5h-0.3v-0.3h0.3zm4.2 1.8v1.7h-0.4v-1.7q0-0.3-0.2-0.5-0.1-0.2-0.4-0.2-0.4 0-0.6 0.2-0.2 0.2-0.2 0.6v1.6h-0.5v-3.8h0.5v1.5q0.2-0.3 0.4-0.4 0.2-0.1 0.5-0.1 0.4 0 0.7 0.3 0.2 0.3 0.2 0.8zm3.3 0.2v0.2h-2.1q0 0.5 0.3 0.7 0.2 0.3 0.7 0.3 0.2 0 0.5-0.1 0.2-0.1 0.5-0.2v0.4q-0.3 0.1-0.5 0.2-0.3 0-0.6 0-0.6 0-1-0.3-0.4-0.4-0.4-1.1 0-0.6 0.4-1 0.4-0.4 1-0.4 0.5 0 0.8 0.3 0.4 0.4 0.4 1zm-2.1-0.1h1.6q0-0.4-0.2-0.6-0.2-0.2-0.5-0.2-0.4 0-0.6 0.2-0.3 0.2-0.3 0.6zm4.4 1.6v-3.7h0.7l1.6 3.1v-3.1h0.5v3.7h-0.7l-1.6-3.1v3.1zm4.8-2.4q-0.4 0-0.6 0.2-0.2 0.3-0.2 0.8 0 0.5 0.2 0.8 0.2 0.3 0.6 0.3 0.3 0 0.5-0.3 0.2-0.3 0.2-0.8 0-0.5-0.2-0.8-0.2-0.2-0.5-0.2zm0-0.4q0.6 0 0.9 0.4 0.3 0.3 0.3 1 0 0.7-0.3 1.1-0.3 0.3-0.9 0.3-0.6 0-1-0.3-0.3-0.4-0.3-1.1 0-0.7 0.3-1 0.4-0.4 1-0.4zm1.9 1.7v-1.7h0.5v1.7q0 0.4 0.1 0.6 0.2 0.2 0.5 0.2 0.3 0 0.6-0.3 0.2-0.2 0.2-0.6v-1.6h0.4v2.8h-0.4v-0.4q-0.2 0.2-0.4 0.3-0.2 0.1-0.5 0.1-0.5 0-0.7-0.2-0.3-0.3-0.3-0.9zm1.2-1.7zm4.3 1.1v1.7h-0.4v-1.7q0-0.3-0.2-0.5-0.1-0.2-0.4-0.2-0.4 0-0.6 0.2-0.2 0.2-0.2 0.6v1.6h-0.5v-2.8h0.5v0.5q0.1-0.3 0.4-0.4 0.2-0.1 0.5-0.1 0.4 0 0.7 0.3 0.2 0.3 0.2 0.8zm3.6-1.6h-0.6v1.4h0.6q0.4 0 0.6-0.2 0.1-0.2 0.1-0.5 0-0.3-0.1-0.5-0.2-0.2-0.6-0.2zm-1.1 3.3v-3.7h1.1q0.6 0 1 0.3 0.3 0.3 0.3 0.8 0 0.6-0.3 0.8-0.4 0.3-1 0.3h-0.6v1.5zm4.5-2.8v0.5q-0.1-0.1-0.2-0.1-0.1 0-0.2 0-0.3 0-0.5 0.2-0.2 0.3-0.2 0.7v1.5h-0.5v-2.8h0.5v0.5q0.1-0.3 0.3-0.4 0.2-0.1 0.6-0.1 0 0 0.1 0 0 0 0.1 0zm1.4 0.4q-0.3 0-0.5 0.2-0.3 0.3-0.3 0.8 0 0.5 0.2 0.8 0.3 0.3 0.6 0.3 0.4 0 0.6-0.3 0.2-0.3 0.2-0.8 0-0.5-0.2-0.8-0.2-0.2-0.6-0.2zm0-0.4q0.6 0 0.9 0.4 0.4 0.3 0.4 1 0 0.7-0.4 1.1-0.3 0.3-0.9 0.3-0.6 0-0.9-0.3-0.3-0.4-0.3-1.1 0-0.7 0.3-1 0.3-0.4 0.9-0.4zm2 2.8v-2.8h0.5v2.8q0 0.5-0.2 0.8-0.2 0.2-0.7 0.2h-0.1v-0.4h0.1q0.2 0 0.3-0.1 0.1-0.1 0.1-0.5zm0-3.3v-0.5h0.5v0.5zm3.7 1.8v0.2h-2.1q0.1 0.5 0.3 0.7 0.3 0.3 0.7 0.3 0.3 0 0.5-0.1 0.3-0.1 0.5-0.2v0.4q-0.2 0.1-0.5 0.2-0.3 0-0.5 0-0.7 0-1.1-0.3-0.3-0.4-0.3-1.1 0-0.6 0.3-1 0.4-0.4 1-0.4 0.6 0 0.9 0.3 0.3 0.4 0.3 1zm-2.1-0.1h1.6q0-0.4-0.2-0.6-0.2-0.2-0.5-0.2-0.4 0-0.6 0.2-0.2 0.2-0.3 0.6zm4.8-1.1v0.5q-0.2-0.1-0.4-0.2-0.2 0-0.4 0-0.4 0-0.6 0.2-0.3 0.3-0.3 0.8 0 0.5 0.3 0.8 0.2 0.3 0.6 0.3 0.2 0 0.4-0.1 0.2 0 0.4-0.1v0.4q-0.2 0.1-0.4 0.1-0.2 0-0.4 0-0.6 0-1-0.3-0.4-0.4-0.4-1.1 0-0.7 0.4-1 0.4-0.4 1-0.4 0.2 0 0.4 0 0.2 0.1 0.4 0.1zm0.8-0.8h0.4v0.7h1v0.4h-1v1.5q0 0.3 0.1 0.4 0.1 0.1 0.4 0.1h0.5v0.4h-0.5q-0.5 0-0.7-0.2-0.2-0.2-0.2-0.7v-1.5h-0.4v-0.4h0.4z"/>
</svg>