<svg version="1.2" xmlns="http://www.w3.org/2000/svg" viewBox="0 0 59 87">
	<g id="Group">
	<path id="Compound Path" fill-rule="evenodd" class="s0" d="m54.6 8.2q0.3 0.1 0.6 0.2 0.3 0.1 0.6 0.3 0.2 0.3 0.4 0.5 0.2 0.2 0.4 0.5 0.1 0.3 0.2 0.6 0.1 0.3 0.1 0.6 0 0.3 0 0.6l-8.5 63.8q-0.1 0.5-0.4 1-0.2 0.5-0.6 0.8-0.4 0.4-0.9 0.6-0.6 0.2-1.1 0.2h-30.8q-0.5 0-1.1-0.2-0.5-0.2-0.9-0.6-0.4-0.3-0.6-0.8-0.3-0.5-0.4-1l-8.5-63.8q0-0.3 0-0.6 0-0.3 0.1-0.6 0.1-0.3 0.2-0.6 0.2-0.3 0.4-0.5 0.2-0.2 0.4-0.5 0.3-0.2 0.6-0.3 0.3-0.1 0.6-0.2 0.3-0.1 0.6-0.1h48q0.3 0 0.6 0.1zm-4.1 5.9h-41l2.5 19q0.7 0.1 1.4 0.2 0.7 0.2 1.4 0.4 0.7 0.3 1.4 0.5 0.7 0.3 1.3 0.7 0.6 0.3 1.3 0.6 0.7 0.2 1.4 0.4 0.7 0.2 1.5 0.2 0.7 0.1 1.4 0.1 0.7 0 1.5-0.1 0.7 0 1.4-0.2 0.7-0.2 1.4-0.4 0.7-0.3 1.3-0.6 0.9-0.5 1.9-0.9 1-0.4 2.1-0.6 1-0.3 2.1-0.4 1-0.1 2.1-0.1 1.1 0 2.1 0.1 1.1 0.1 2.1 0.4 1.1 0.2 2.1 0.6 1 0.4 1.9 0.9l2.5 1z"/>
	</g>
	<path id="Created by Naveen" class="s0" aria-label="Created by Naveen"  d="m-16.8 104.6v0.6q-0.2-0.3-0.5-0.4-0.3-0.1-0.6-0.1-0.6 0-1 0.4-0.3 0.4-0.3 1.1 0 0.7 0.3 1.1 0.4 0.4 1 0.4 0.3 0 0.6-0.1 0.3-0.2 0.5-0.4v0.5q-0.2 0.2-0.5 0.3-0.3 0.1-0.6 0.1-0.9 0-1.3-0.5-0.5-0.5-0.5-1.4 0-0.9 0.5-1.4 0.4-0.5 1.3-0.5 0.3 0 0.6 0.1 0.3 0.1 0.5 0.2zm2.3 0.6v0.5q0-0.1-0.1-0.1-0.1 0-0.2 0-0.4 0-0.6 0.2-0.2 0.3-0.2 0.8v1.4h-0.5v-2.7h0.5v0.4q0.1-0.3 0.4-0.4 0.2-0.1 0.5-0.1 0.1 0 0.1 0 0.1 0 0.1 0zm2.7 1.3v0.2h-2q0 0.5 0.3 0.7 0.2 0.3 0.7 0.3 0.2 0 0.5-0.1 0.2 0 0.4-0.2v0.5q-0.2 0.1-0.5 0.1-0.2 0.1-0.5 0.1-0.6 0-1-0.4-0.4-0.4-0.4-1 0-0.7 0.4-1.1 0.3-0.4 1-0.4 0.5 0 0.8 0.4 0.3 0.3 0.3 0.9zm-2-0.1h1.6q0-0.4-0.2-0.6-0.2-0.2-0.5-0.2-0.4 0-0.6 0.2-0.3 0.2-0.3 0.6zm4.5 0.2h-0.5q-0.5 0-0.7 0.2-0.2 0.1-0.2 0.4 0 0.2 0.1 0.4 0.2 0.1 0.4 0.1 0.4 0 0.6-0.3 0.3-0.2 0.3-0.7zm0.4-0.2v1.6h-0.4v-0.4q-0.2 0.2-0.4 0.4-0.2 0.1-0.6 0.1-0.4 0-0.6-0.3-0.3-0.2-0.3-0.6 0-0.5 0.3-0.7 0.3-0.2 0.9-0.2h0.7v-0.1q0-0.3-0.2-0.4-0.2-0.2-0.6-0.2-0.2 0-0.5 0-0.2 0.1-0.4 0.2v-0.4q0.3-0.1 0.5-0.2 0.2 0 0.4 0 0.6 0 0.9 0.3 0.3 0.3 0.3 0.9zm0.9-1.9h0.5v0.8h0.9v0.3h-0.9v1.5q0 0.3 0.1 0.4 0.1 0.1 0.4 0.1h0.4v0.4h-0.4q-0.6 0-0.8-0.2-0.2-0.2-0.2-0.7v-1.5h-0.3v-0.3h0.3zm4.3 2v0.2h-2q0 0.5 0.3 0.7 0.2 0.3 0.7 0.3 0.2 0 0.5-0.1 0.2-0.1 0.4-0.2v0.4q-0.2 0.1-0.5 0.2-0.2 0-0.5 0-0.6 0-1-0.3-0.4-0.4-0.4-1.1 0-0.6 0.4-1 0.3-0.4 1-0.4 0.5 0 0.8 0.3 0.3 0.4 0.3 1zm-2-0.1h1.6q0-0.4-0.2-0.6-0.2-0.2-0.5-0.2-0.4 0-0.6 0.2-0.3 0.2-0.3 0.6zm4.6-0.7v-1.5h0.4v3.8h-0.4v-0.4q-0.2 0.2-0.4 0.3-0.2 0.1-0.5 0.1-0.5 0-0.8-0.3-0.3-0.4-0.3-1.1 0-0.6 0.3-1 0.3-0.4 0.8-0.4 0.3 0 0.5 0.1 0.2 0.1 0.4 0.4zm-1.5 0.9q0 0.5 0.2 0.8 0.2 0.3 0.5 0.3 0.4 0 0.6-0.3 0.2-0.3 0.2-0.8 0-0.5-0.2-0.8-0.2-0.2-0.6-0.2-0.3 0-0.5 0.2-0.2 0.3-0.2 0.8zm6.4 0q0-0.5-0.2-0.8-0.2-0.2-0.6-0.2-0.3 0-0.5 0.2-0.2 0.3-0.2 0.8 0 0.5 0.2 0.8 0.2 0.3 0.5 0.3 0.4 0 0.6-0.3 0.2-0.3 0.2-0.8zm-1.5-2.4v1.5q0.1-0.3 0.3-0.4 0.3-0.1 0.6-0.1 0.5 0 0.8 0.4 0.3 0.4 0.3 1 0 0.7-0.3 1.1-0.3 0.3-0.8 0.3-0.3 0-0.6-0.1-0.2-0.1-0.3-0.3v0.4h-0.5v-3.8zm5.1 1l-1.2 3q-0.2 0.5-0.4 0.7-0.1 0.1-0.4 0.1h-0.4v-0.4h0.3q0.1 0 0.2 0 0.1-0.1 0.3-0.5l0.1-0.2-1.2-2.7h0.5l0.9 2.2 0.8-2.2zm2.3 2.8v-3.7h0.6l1.6 3.1v-3.1h0.5v3.7h-0.6l-1.7-3.1v3.1zm5.5-1.4h-0.5q-0.5 0-0.8 0.1-0.2 0.2-0.2 0.5 0 0.2 0.2 0.3 0.2 0.2 0.4 0.2 0.4 0 0.6-0.3 0.3-0.3 0.3-0.7zm0.4-0.2v1.6h-0.4v-0.4q-0.2 0.2-0.4 0.3-0.3 0.1-0.6 0.1-0.4 0-0.7-0.2-0.2-0.2-0.2-0.6 0-0.5 0.3-0.7 0.3-0.2 0.9-0.2h0.7v-0.1q0-0.3-0.3-0.5-0.2-0.1-0.5-0.1-0.3 0-0.5 0-0.2 0.1-0.4 0.2v-0.4q0.2-0.1 0.5-0.2 0.2 0 0.4 0 0.6 0 0.9 0.3 0.3 0.3 0.3 0.9zm1.6 1.6l-1-2.8h0.5l0.8 2.3 0.9-2.3h0.5l-1.1 2.8zm4.6-1.5v0.2h-2q0 0.5 0.2 0.7 0.3 0.3 0.7 0.3 0.3 0 0.5-0.1 0.3-0.1 0.5-0.2v0.4q-0.2 0.1-0.5 0.2-0.2 0-0.5 0-0.6 0-1-0.3-0.4-0.4-0.4-1.1 0-0.6 0.4-1 0.3-0.4 0.9-0.4 0.6 0 0.9 0.3 0.3 0.4 0.3 1zm-2-0.1h1.6q0-0.4-0.2-0.6-0.2-0.2-0.6-0.2-0.3 0-0.6 0.2-0.2 0.2-0.2 0.6zm5.1 0.1v0.2h-2.1q0.1 0.5 0.3 0.7 0.3 0.3 0.7 0.3 0.3 0 0.5-0.1 0.3-0.1 0.5-0.2v0.4q-0.2 0.1-0.5 0.2-0.2 0-0.5 0-0.7 0-1-0.3-0.4-0.4-0.4-1.1 0-0.6 0.3-1 0.4-0.4 1-0.4 0.6 0 0.9 0.3 0.3 0.4 0.3 1zm-2-0.1h1.6q0-0.4-0.2-0.6-0.2-0.2-0.6-0.2-0.4 0-0.6 0.2-0.2 0.2-0.2 0.6zm5-0.1v1.7h-0.4v-1.7q0-0.3-0.2-0.5-0.1-0.2-0.4-0.2-0.4 0-0.6 0.2-0.2 0.2-0.2 0.6v1.6h-0.5v-2.8h0.5v0.5q0.1-0.3 0.4-0.4 0.2-0.1 0.5-0.1 0.4 0 0.7 0.3 0.2 0.3 0.2 0.8z"/>
	<path id="from the Noun Project" class="s0" aria-label="from the Noun Project"  d="m-18.6 109.2h0.5v0.4h-0.5q-0.2 0-0.3 0.1-0.1 0.1-0.1 0.3v0.3h0.7v0.3h-0.7v2.4h-0.5v-2.4h-0.4v-0.3h0.4v-0.2q0-0.5 0.3-0.7 0.2-0.2 0.6-0.2zm2.4 1v0.5q-0.1-0.1-0.2-0.1 0 0-0.1 0-0.4 0-0.6 0.2-0.2 0.3-0.2 0.8v1.4h-0.5v-2.7h0.5v0.4q0.1-0.3 0.3-0.4 0.3-0.1 0.6-0.1 0 0 0.1 0 0 0 0.1 0zm1.4 0.4q-0.3 0-0.5 0.3-0.2 0.2-0.2 0.7 0 0.5 0.2 0.8 0.2 0.3 0.5 0.3 0.4 0 0.6-0.3 0.2-0.3 0.2-0.8 0-0.5-0.2-0.7-0.2-0.3-0.6-0.3zm0-0.4q0.6 0 1 0.4 0.3 0.4 0.3 1 0 0.7-0.3 1.1-0.4 0.4-1 0.4-0.6 0-0.9-0.4-0.3-0.4-0.3-1.1 0-0.6 0.3-1 0.3-0.4 0.9-0.4zm4.2 0.6q0.1-0.3 0.4-0.5 0.2-0.1 0.5-0.1 0.4 0 0.7 0.3 0.2 0.3 0.2 0.8v1.7h-0.4v-1.6q0-0.4-0.2-0.6-0.1-0.2-0.4-0.2-0.4 0-0.6 0.2-0.2 0.3-0.2 0.7v1.5h-0.4v-1.6q0-0.4-0.1-0.6-0.2-0.2-0.5-0.2-0.3 0-0.5 0.2-0.2 0.3-0.2 0.7v1.5h-0.5v-2.7h0.5v0.4q0.1-0.3 0.3-0.4 0.3-0.1 0.5-0.1 0.3 0 0.6 0.2 0.2 0.1 0.3 0.4zm4.3-1.3h0.4v0.8h1v0.3h-1v1.5q0 0.3 0.1 0.4 0.1 0.1 0.4 0.1h0.5v0.4h-0.5q-0.5 0-0.7-0.2-0.2-0.2-0.2-0.7v-1.5h-0.3v-0.3h0.3zm4.2 1.8v1.7h-0.4v-1.7q0-0.3-0.2-0.5-0.1-0.2-0.4-0.2-0.4 0-0.6 0.2-0.2 0.2-0.2 0.6v1.6h-0.5v-3.8h0.5v1.5q0.2-0.3 0.4-0.4 0.2-0.1 0.5-0.1 0.4 0 0.7 0.3 0.2 0.3 0.2 0.8zm3.3 0.2v0.2h-2.1q0 0.5 0.3 0.7 0.2 0.3 0.7 0.3 0.2 0 0.5-0.1 0.2-0.1 0.5-0.2v0.4q-0.3 0.1-0.5 0.2-0.3 0-0.6 0-0.6 0-1-0.3-0.4-0.4-0.4-1.1 0-0.6 0.4-1 0.4-0.4 1-0.4 0.5 0 0.8 0.3 0.4 0.4 0.4 1zm-2.1-0.1h1.6q0-0.4-0.2-0.6-0.2-0.2-0.5-0.2-0.4 0-0.6 0.2-0.3 0.2-0.3 0.6zm4.4 1.6v-3.7h0.7l1.6 3.1v-3.1h0.5v3.7h-0.7l-1.6-3.1v3.1zm4.8-2.4q-0.4 0-0.6 0.2-0.2 0.3-0.2 0.8 0 0.5 0.2 0.8 0.2 0.3 0.6 0.3 0.3 0 0.5-0.3 0.2-0.3 0.2-0.8 0-0.5-0.2-0.8-0.2-0.2-0.5-0.2zm0-0.4q0.6 0 0.9 0.4 0.3 0.3 0.3 1 0 0.7-0.3 1.1-0.3 0.3-0.9 0.3-0.6 0-1-0.3-0.3-0.4-0.3-1.1 0-0.7 0.3-1 0.4-0.4 1-0.4zm1.9 1.7v-1.7h0.5v1.7q0 0.4 0.1 0.6 0.2 0.2 0.5 0.2 0.3 0 0.6-0.3 0.2-0.2 0.2-0.6v-1.6h0.4v2.8h-0.4v-0.4q-0.2 0.2-0.4 0.3-0.2 0.1-0.5 0.1-0.5 0-0.7-0.2-0.3-0.3-0.3-0.9zm1.2-1.7zm4.3 1.1v1.7h-0.4v-1.7q0-0.3-0.2-0.5-0.1-0.2-0.4-0.2-0.4 0-0.6 0.2-0.2 0.2-0.2 0.6v1.6h-0.5v-2.8h0.5v0.5q0.1-0.3 0.4-0.4 0.2-0.1 0.5-0.1 0.4 0 0.7 0.3 0.2 0.3 0.2 0.8zm3.6-1.6h-0.6v1.4h0.6q0.4 0 0.6-0.2 0.1-0.2 0.1-0.5 0-0.3-0.1-0.5-0.2-0.2-0.6-0.2zm-1.1 3.3v-3.7h1.1q0.6 0 1 0.3 0.3 0.3 0.3 0.8 0 0.6-0.3 0.8-0.4 0.3-1 0.3h-0.6v1.5zm4.5-2.8v0.5q-0.1-0.1-0.2-0.1-0.1 0-0.2 0-0.3 0-0.5 0.2-0.2 0.3-0.2 0.7v1.5h-0.5v-2.8h0.5v0.5q0.1-0.3 0.3-0.4 0.2-0.1 0.6-0.1 0 0 0.1 0 0 0 0.1 0zm1.4 0.4q-0.3 0-0.5 0.2-0.3 0.3-0.3 0.8 0 0.5 0.2 0.8 0.3 0.3 0.6 0.3 0.4 0 0.6-0.3 0.2-0.3 0.2-0.8 0-0.5-0.2-0.8-0.2-0.2-0.6-0.2zm0-0.4q0.6 0 0.9 0.4 0.4 0.3 0.4 1 0 0.7-0.4 1.1-0.3 0.3-0.9 0.3-0.6 0-0.9-0.3-0.3-0.4-0.3-1.1 0-0.7 0.3-1 0.3-0.4 0.9-0.4zm2 2.8v-2.8h0.5v2.8q0 0.5-0.2 0.8-0.2 0.2-0.7 0.2h-0.1v-0.4h0.1q0.2 0 0.3-0.1 0.1-0.1 0.1-0.5zm0-3.3v-0.5h0.5v0.5zm3.7 1.8v0.2h-2.1q0.1 0.5 0.3 0.7 0.3 0.3 0.7 0.3 0.3 0 0.5-0.1 0.3-0.1 0.5-0.2v0.4q-0.2 0.1-0.5 0.2-0.3 0-0.5 0-0.7 0-1.1-0.3-0.3-0.4-0.3-1.1 0-0.6 0.3-1 0.4-0.4 1-0.4 0.6 0 0.9 0.3 0.3 0.4 0.3 1zm-2.1-0.1h1.6q0-0.4-0.2-0.6-0.2-0.2-0.5-0.2-0.4 0-0.6 0.2-0.2 0.2-0.3 0.6zm4.8-1.1v0.5q-0.2-0.1-0.4-0.2-0.2 0-0.4 0-0.4 0-0.6 0.2-0.3 0.3-0.3 0.8 0 0.5 0.3 0.8 0.2 0.3 0.6 0.3 0.2 0 0.4-0.1 0.2 0 0.4-0.1v0.4q-0.2 0.1-0.4 0.1-0.2 0-0.4 0-0.6 0-1-0.3-0.4-0.4-0.4-1.1 0-0.7 0.4-1 0.4-0.4 1-0.4 0.2 0 0.4 0 0.2 0.1 0.4 0.1zm0.8-0.8h0.4v0.7h1v0.4h-1v1.5q0 0.3 0.1 0.4 0.1 0.1 0.4 0.1h0.5v0.4h-0.5q-0.5 0-0.7-0.2-0.2-0.2-0.2-0.7v-1.5h-0.4v-0.4h0.4z"/>
</svg>